<svg xmlns="http://www.w3.org/2000/svg" width="155.324" height="50.712" viewBox="0 0 155.324 50.712">
  <g id="Grupo_18530" data-name="Grupo 18530" transform="translate(-196 -130.069)">
    <g id="Grupo_18527" data-name="Grupo 18527" transform="translate(196 130.069)">
      <g id="Grupo_18525" data-name="Grupo 18525" transform="translate(0 0)">
        <path id="Trazado_61265" data-name="Trazado 61265" d="M.5,159.375H7.718V137.537L.5,141.923Z" transform="translate(-0.5 -108.663)" fill="#3431a0"/>
        <path id="Trazado_61266" data-name="Trazado 61266" d="M42.23,102.759H54.108V65.753L42.23,72.7Z" transform="translate(-33.412 -52.047)" fill="#8275f4"/>
        <path id="Trazado_61267" data-name="Trazado 61267" d="M168.5,119.811h8.224V92.217L168.5,87.374Z" transform="translate(-133.002 -69.1)" fill="#8275f4"/>
        <path id="Trazado_61268" data-name="Trazado 61268" d="M117.618,51.6V7.924L106.013.888V51.6Z" transform="translate(-83.718 -0.888)" fill="#3431a0"/>
      </g>
      <path id="Trazado_2" data-name="Trazado 2" d="M8.422.144A10.851,10.851,0,0,0,1.8,4.6,9.892,9.892,0,0,0,0,10.49a10.237,10.237,0,0,0,3.257,7.638A10.033,10.033,0,0,0,9.134,20.97a6.074,6.074,0,0,0,2.35.063,9.263,9.263,0,0,0,4.852-2.183c.353-.316.682-.536.731-.488a4.912,4.912,0,0,1,.131,1.186c.059,1.5.169,1.589,2,1.589,1.711,0,1.859-.1,1.989-1.306a59.6,59.6,0,0,0-.2-11.841A10.733,10.733,0,0,0,13.629.338,14.964,14.964,0,0,0,8.422.144Zm3.49,4.132a6.536,6.536,0,0,1,5.06,5.185,6.468,6.468,0,0,1-4.429,7.124,7.605,7.605,0,0,1-3.622.048A6.412,6.412,0,0,1,4.23,10.551a6.037,6.037,0,0,1,1.983-4.6A6.345,6.345,0,0,1,11.912,4.276Z" transform="translate(11.169 22.843)" fill="#fff" fill-rule="evenodd"/>
    </g>
    <g id="Grupo_18528" data-name="Grupo 18528" transform="translate(242.238 143.011)">
      <g id="Grupo_5" data-name="Grupo 5" transform="translate(0)">
        <path id="Trazado_1" data-name="Trazado 1" d="M45.676.316l-.31.31V6.813a61.188,61.188,0,0,1-.128,6.265c-.07.043-.454-.212-.852-.568a10.087,10.087,0,0,0-3.9-1.966,11.3,11.3,0,0,0-4.785.2,10.854,10.854,0,1,0,9.919,18.8,11.116,11.116,0,0,0,3.8-6.767c.186-1.153.218-11.074.057-17.9C49.354-.376,49.519.006,47.387.006,46.068.006,45.968.024,45.676.316ZM89,2.918a3.1,3.1,0,0,0-1.592,1.436A2.712,2.712,0,0,0,90.25,8.169,2.708,2.708,0,1,0,89,2.918Zm-.869,7.606c-.284.284-.29.35-.373,4.125-.046,2.11-.084,5.039-.084,6.51s.038,4.4.084,6.51c.1,4.741-.052,4.414,2.106,4.414,2.189,0,1.97.589,2.123-5.7.087-3.557.087-6.936,0-10.478-.154-6.26.065-5.674-2.123-5.674C88.526,10.235,88.4,10.257,88.13,10.524Zm-28.619.03a6.014,6.014,0,0,0-2.572,1.4c-.3.3-.587.507-.631.463a1.611,1.611,0,0,1-.08-.627c0-.939-.222-1.052-2.06-1.052a4.1,4.1,0,0,0-1.8.18c-.24.176-.244.412-.217,10.437.026,9.405.046,10.276.241,10.491s.414.235,1.819.235c1.34,0,1.635-.035,1.78-.209s.189-1.476.252-6.725c.051-4.266.129-6.7.224-7.063A5.144,5.144,0,0,1,59.23,14.8a3.716,3.716,0,0,1,2.048-.338,3.533,3.533,0,0,1,2.158.407,5.136,5.136,0,0,1,2.351,2.407,6.7,6.7,0,0,1,.426,2.869c.056,1.181.1,3.232.109,4.558.013,4.172.152,7,.353,7.2.134.134.564.178,1.739.178,1.711,0,1.945-.088,1.971-.735.007-.186.055-3.18.106-6.653.089-6.062.1-6.345.37-7.072a4.591,4.591,0,0,1,3.022-2.959,5.08,5.08,0,0,1,5.62,1.712c.842,1.195.881,1.4.982,5.288.051,1.945.1,4.958.1,6.7.01,2.643.044,3.207.209,3.441.186.265.285.281,1.828.281s1.64-.014,1.814-.284c.152-.236.189-1.42.223-7.041.047-7.684.061-7.543-.987-9.713a8.246,8.246,0,0,0-5.221-4.325,7.738,7.738,0,0,0-2.841-.294,8.806,8.806,0,0,0-2.652.232,8.627,8.627,0,0,0-3.4,2.005c-.489.47-.911.855-.937.855a10.535,10.535,0,0,1-.848-.749,9.127,9.127,0,0,0-3.441-2A11.24,11.24,0,0,0,59.51,10.555Zm42.59-.006a5.18,5.18,0,0,0-2.3,1.277,3.934,3.934,0,0,1-.677.557c-.045,0-.082-.2-.082-.45a1.41,1.41,0,0,0-.429-1.095,9.456,9.456,0,0,0-1.729-.095c-1.45,0-1.612.021-1.827.26s-.236.642-.212,10.3c.026,10.089.039,10.407.46,10.688a8.411,8.411,0,0,0,1.623.095c2.093,0,1.986.164,2-3,.007-1.372.054-4.4.1-6.725.088-4.037.106-4.264.39-4.972a5.046,5.046,0,0,1,2.374-2.507,3.6,3.6,0,0,1,2.232-.413,3.818,3.818,0,0,1,2.108.336,4.942,4.942,0,0,1,2.163,1.976c.64,1.175.692,1.743.788,8.532.084,5.929.1,6.312.326,6.535.205.205.438.237,1.733.237s1.524-.031,1.71-.237.227-.892.333-6.535c.146-7.754.093-8.263-1.1-10.568a8.8,8.8,0,0,0-3.473-3.4,8.319,8.319,0,0,0-4.146-.927A8.22,8.22,0,0,0,102.1,10.549Zm22.195-.107a11.09,11.09,0,0,0-7.968,5.878,9.647,9.647,0,0,0-1.089,4.282,10.348,10.348,0,0,0,2.871,7.985,10.889,10.889,0,0,0,7.26,3.437,9.145,9.145,0,0,0,6.586-2.373c.288-.276.586-.464.663-.417a2.624,2.624,0,0,1,.138,1.157c0,.97.029,1.1.309,1.382s.393.31,1.7.31c1.258,0,1.418-.027,1.719-.285.322-.277.335-.341.462-2.494a74.629,74.629,0,0,0-.2-10.1,10.6,10.6,0,0,0-5.818-7.707,8.455,8.455,0,0,0-4.546-1.074C125.407,10.4,124.469,10.408,124.3,10.442ZM40.077,14.784a6.777,6.777,0,0,1,5.15,5.024,6.616,6.616,0,0,1-4.651,7.654,8.144,8.144,0,0,1-3.553,0,6.423,6.423,0,0,1-2.867-1.739,6.239,6.239,0,0,1-1.692-2.841,6.572,6.572,0,0,1,7.613-8.1Zm88.2.257a6.594,6.594,0,0,1,4.357,6.116,7.9,7.9,0,0,1-.851,3.223,7.122,7.122,0,0,1-3.939,3.082,7.73,7.73,0,0,1-3.7-.049,6.863,6.863,0,0,1-4.506-4.9,6.6,6.6,0,0,1,4.812-7.667A7.8,7.8,0,0,1,128.274,15.041Z" transform="translate(-27.939 0)" fill="#282b3b" fill-rule="evenodd"/>
      </g>
    </g>
  </g>
</svg>
